HIERARCHY
ROOT Hips
{
  OFFSET 1.44925e-005 102.336 -0.101585
  CHANNELS 6 Xposition Yposition Zposition Zrotation Xrotation Yrotation
  JOINT RightUpLeg
  {
    OFFSET -8.9458 -8.66707 0.101652
    CHANNELS 3 Zrotation Xrotation Yrotation
    JOINT RightLeg
    {
      OFFSET 0 -44.4227 1.3727
      CHANNELS 3 Zrotation Xrotation Yrotation
      JOINT RightFoot
      {
        OFFSET 0.253549 -42.0924 -1.46059
        CHANNELS 3 Zrotation Xrotation Yrotation
        JOINT RightToes
        {
          OFFSET 0.04 -4.41509 8.4991
          CHANNELS 3 Zrotation Xrotation Yrotation
          End Site
          {
            OFFSET -0.08 -0.137448 9.77979
          }
        }
      }
    }
  }
  JOINT Spine
  {
    OFFSET 0 11.8905 0
    CHANNELS 3 Zrotation Xrotation Yrotation
    JOINT Spine1
    {
      OFFSET 0 25.6574 0.127663
      CHANNELS 3 Zrotation Xrotation Yrotation
      JOINT HEad
      {
        OFFSET 0 8.73416 0.011341
        CHANNELS 3 Zrotation Xrotation Yrotation
        End Site
        {
          OFFSET -0.29 12.7742 2.51395
        }
      }
      JOINT LeftShoulder1
      {
        OFFSET 8.99 -0.362252 -0.22
        CHANNELS 3 Zrotation Xrotation Yrotation
        JOINT LeftArm
        {
          OFFSET 10.2827 -0.00337999 0.322123
          CHANNELS 3 Zrotation Xrotation Yrotation
          JOINT LeftForeArm
          {
            OFFSET 26.2597 0.099144 -1.42434
            CHANNELS 3 Zrotation Xrotation Yrotation
            JOINT LeftHand
            {
              OFFSET 22.0902 0.085362 1.02216
              CHANNELS 3 Zrotation Xrotation Yrotation
              End Site
              {
                OFFSET 13.419 -0.6 1.50291
              }
            }
          }
        }
      }
      JOINT RightShoulder
      {
        OFFSET -8.99 -0.362252 -0.22
        CHANNELS 3 Zrotation Xrotation Yrotation
        JOINT RightArm
        {
          OFFSET -10.2827 -0.00338 0.322123
          CHANNELS 3 Zrotation Xrotation Yrotation
          JOINT RightForeArm
          {
            OFFSET -26.364 0.099144 -1.42434
            CHANNELS 3 Zrotation Xrotation Yrotation
            JOINT RightHand
            {
              OFFSET -22.0324 0.085362 1.02216
              CHANNELS 3 Zrotation Xrotation Yrotation
              End Site
              {
                OFFSET -13.3284 -0.6 1.50291
              }
            }
          }
        }
      }
    }
  }
  JOINT LeftUpLeg
  {
    OFFSET 8.9458 -8.66707 0.101652
    CHANNELS 3 Zrotation Xrotation Yrotation
    JOINT LeftLeg
    {
      OFFSET 0 -44.4227 1.3727
      CHANNELS 3 Zrotation Xrotation Yrotation
      JOINT LeftFoot
      {
        OFFSET -0.253549 -42.0924 -1.46059
        CHANNELS 3 Zrotation Xrotation Yrotation
        JOINT LeftToes
        {
          OFFSET -0.04 -4.41509 8.4991
          CHANNELS 3 Zrotation Xrotation Yrotation
          End Site
          {
            OFFSET 0.08 -0.047448 9.77979
          }
        }
      }
    }
  }
}
MOTION
Frames:	7
Frame Time:	0.0333333
0.553795 106.169 21.3556 1.85404 4.78993 178.878 -7.41671 6.81662 -7.43213 1.34877 9.6339 -12.8488 10.8377 -8.29226 -0.110317 0.0462048 0.000530889 0.662642 2.1853 -3.82721 1.03481 -1.48336 6.79746 1.18658 -2.27123 -2.94199 -0.610519 -28.497 1.70246 -1.41616 -46.5795 -19.7752 -18.924 -11.991 40.4569 1.17324 1.17516 9.86987 -1.13953 39.0865 5.29393 7.67444 27.338 -33.9571 -3.24429 4.94018 32.6067 7.73457 -18.4374 8.97801 0.595545 14.1378 4.11448 9.60903 -3.19643 11.3353 8.94615 -12.2622 -5.1491 0.28634 -1.40479e-009 8.75242e-006 -1.47264e-008 
0.553795 106.179 21.3091 1.83874 4.79524 178.929 -7.41651 6.87563 -7.43429 1.34222 9.60015 -12.9178 10.7875 -8.26648 -0.11031 0.0462048 0.000530889 0.662642 2.15628 -3.96573 1.01062 -1.44779 7.03495 1.15041 -2.27255 -2.95116 -0.58869 -28.5007 1.71511 -1.45218 -46.6678 -19.6773 -18.9445 -12.031 40.6349 1.13681 1.91046 9.82886 -1.12545 39.1655 5.29946 7.66619 27.4543 -33.9892 -3.10018 4.91887 32.7066 7.72549 -18.4231 8.98384 0.56217 14.1165 4.08996 9.59694 -3.17919 11.4066 8.87944 -12.0283 -5.22397 0.273697 -1.40479e-009 8.75242e-006 -1.47264e-008 
0.552165 106.186 21.2171 1.79787 4.77365 179.008 -7.43623 6.92188 -7.4429 1.32459 9.60037 -13.0176 10.7214 -8.27433 -0.110312 0.0462048 0.000530889 0.662642 2.07787 -4.18443 0.964315 -1.36648 7.34997 1.08285 -2.19595 -2.91971 -0.527567 -28.487 1.72604 -1.48563 -46.8085 -19.4837 -18.9468 -12.1283 40.7514 1.11631 2.51532 9.79679 -0.979928 39.2953 5.30877 7.65318 27.616 -33.9467 -2.91438 4.9472 32.8261 7.67151 -18.336 8.959 0.757149 14.0616 4.03528 9.56813 -3.15454 11.5137 8.81324 -11.7184 -5.33132 0.256581 -1.40479e-009 8.75242e-006 -1.47264e-008 
0.541271 106.184 21.0986 1.76272 4.72726 179.067 -7.46892 6.95458 -7.46605 1.32041 9.60338 -13.0689 10.6902 -8.31366 -0.110323 0.0462048 0.000530889 0.662642 2.00633 -4.3903 0.916015 -1.27564 7.55501 1.01275 -2.03965 -2.77815 -0.466163 -28.4961 1.71447 -1.45098 -46.8928 -19.2632 -18.9187 -12.2789 40.81 1.17194 2.45938 9.80219 -0.792972 39.3912 5.31987 7.65279 27.7315 -33.8211 -2.82196 5.01966 32.9307 7.60123 -18.2614 8.92118 1.03529 14.0087 4.00928 9.53468 -3.13409 11.5716 8.79218 -11.6168 -5.41809 0.246151 -1.40479e-009 8.75242e-006 -1.47264e-008 
0.514881 106.179 20.9654 1.75112 4.67806 179.077 -7.51386 7.02689 -7.51484 1.35506 9.52596 -13.0238 10.7056 -8.32885 -0.110328 0.0462048 0.000530889 0.662642 1.98213 -4.61141 0.881456 -1.21185 7.71361 0.959839 -1.88744 -2.52715 -0.441369 -28.541 1.6896 -1.37299 -46.9342 -19.1173 -18.8724 -12.4115 40.9155 1.28628 2.09348 9.82218 -0.741862 39.4272 5.33107 7.66791 27.8203 -33.7257 -2.8051 5.05039 33.0582 7.58959 -18.1956 8.91632 1.09266 13.9733 4.05779 9.50316 -3.12401 11.5394 8.82143 -11.7079 -5.47972 0.242004 -1.40479e-009 8.75242e-006 -1.47264e-008 
0.481199 106.176 20.8301 1.74053 4.62493 179.031 -7.58347 7.11265 -7.58309 1.40895 9.39721 -12.8991 10.7475 -8.31543 -0.110324 0.0462048 0.000530889 0.662642 1.9593 -4.9119 0.865569 -1.15095 7.96942 0.923966 -1.7826 -2.27774 -0.473253 -28.5726 1.67928 -1.33891 -47.0395 -19.1054 -18.8143 -12.4349 41.0227 1.37062 1.78534 9.83838 -0.739222 39.4455 5.34172 7.68637 27.9114 -33.7196 -2.77838 5.00768 33.1973 7.65557 -18.0591 8.94346 0.962671 13.9257 4.14633 9.46814 -3.12486 11.4535 8.90951 -11.7728 -5.52964 0.2384 -1.40479e-009 8.75242e-006 -1.47264e-008 
0.447467 106.176 20.7092 1.71943 4.55961 178.953 -7.65516 7.13896 -7.62887 1.43063 9.32699 -12.7751 10.7923 -8.32045 -0.110325 0.0462048 0.000530889 0.662642 1.89141 -5.23908 0.860331 -1.04786 8.29253 0.891076 -1.68955 -2.15885 -0.590354 -28.5592 1.68798 -1.36582 -47.2225 -19.1654 -18.7594 -12.3667 41.0649 1.38002 1.56937 9.8504 -0.608066 39.4803 5.35201 7.6998 27.9709 -33.7526 -2.72615 4.93823 33.2926 7.76118 -17.8526 8.96917 0.866489 13.8616 4.20159 9.43553 -3.13039 11.4027 9.03093 -11.7343 -5.58565 0.232236 -1.40479e-009 8.75242e-006 -1.47264e-008 
